<svg version="1.1" id="Layer_1" xmlns="http://www.w3.org/2000/svg" xmlns:xlink="http://www.w3.org/1999/xlink" x="0px" y="0px"
	 width="100%" viewBox="0 0 160 160" enable-background="new 0 0 160 160" xml:space="preserve">
<path fill="#000000" opacity="0" stroke="none" 
	d="
M161.000000,43.000000 
	C161.000000,81.500000 160.956497,119.500145 161.084030,157.499725 
	C161.094040,160.483307 160.482712,161.089859 157.499817,161.083099 
	C106.500076,160.967346 55.499928,160.967346 4.500189,161.083099 
	C1.517294,161.089859 0.910136,160.482712 0.916906,157.499817 
	C1.032648,106.500076 1.032648,55.499928 0.916906,4.500188 
	C0.910136,1.517294 1.517294,0.910136 4.500188,0.916906 
	C55.499928,1.032651 106.500076,1.032651 157.499817,0.916906 
	C160.482712,0.910136 161.138077,1.510137 161.088669,4.501464 
	C160.879532,17.164677 161.000000,29.833334 161.000000,43.000000 
z"/>
<path fill="#FFFFFF" opacity="1.000000" stroke="none" 
	d="
M130.000000,7.000000 
	C137.993851,7.000071 145.489487,7.091548 152.980545,6.946942 
	C155.363052,6.900950 156.059998,7.569734 156.052338,9.989698 
	C155.968414,36.467720 156.853775,62.984467 155.666992,89.409454 
	C154.995941,104.351036 148.455994,117.944153 138.171463,129.419983 
	C127.296295,141.554871 114.290833,149.564606 98.240005,153.116455 
	C77.389122,157.730530 58.386654,153.676682 40.791733,142.226303 
	C23.286190,130.834076 13.448871,114.110756 9.225243,94.048416 
	C8.479318,90.505249 7.983911,86.637085 7.987758,82.850990 
	C8.011952,59.037212 8.110972,35.222366 7.889799,11.410616 
	C7.853316,7.482747 9.055947,6.907223 12.596186,6.918948 
	C51.563786,7.048005 90.531975,7.000000 130.000000,7.000000 
z"/>
<path fill="#000000" opacity="1.000000" stroke="none" 
	d="
M43.782013,139.282410 
	C27.675314,128.221130 17.799412,113.525772 13.922066,94.660889 
	C12.320141,86.866859 11.944833,79.078903 11.976020,71.187424 
	C12.050389,52.370007 12.082290,33.551384 11.918874,14.735094 
	C11.891697,11.605932 12.723375,10.919973 15.772451,10.927305 
	C59.902218,11.033434 104.032379,11.028259 148.162201,10.936095 
	C151.086197,10.929989 152.107742,11.423885 152.086517,14.669576 
	C151.927490,38.981682 152.597412,63.315674 151.769196,87.600578 
	C151.295013,101.504356 145.661652,114.222397 136.509979,124.935272 
	C125.877647,137.381424 112.742081,145.680801 96.489487,149.267044 
	C83.150513,152.210403 70.422142,150.919083 57.805004,146.345047 
	C52.969807,144.592163 48.347744,142.385437 43.782013,139.282410 
z"/>
<path fill="#FFFFFF" opacity="1.000000" stroke="none" 
	d="
M120.733047,131.764526 
	C106.750877,141.787369 91.344475,145.483688 74.789635,143.905487 
	C62.893219,142.771408 52.150303,138.151398 42.503044,131.009766 
	C28.207521,120.427116 20.348984,105.871017 17.238359,88.777969 
	C16.468597,84.548088 15.940681,80.033302 15.961296,75.567413 
	C16.051294,56.070465 16.068399,36.572388 15.930469,17.076004 
	C15.908331,13.946872 16.541159,12.904702 19.936214,12.915404 
	C61.263535,13.045686 102.591492,13.033088 143.918991,12.933689 
	C147.035934,12.926193 148.114212,13.522910 148.087875,16.931286 
	C147.916672,39.093628 148.528152,61.274998 147.812790,83.415550 
	C147.342300,97.977478 141.613419,111.056847 131.550888,121.840988 
	C128.313354,125.310692 125.366196,129.218857 120.733047,131.764526 
z"/>
<path fill="#000000" opacity="1.000000" stroke="none" 
	d="
M125.749458,121.749908 
	C111.759842,136.351517 94.449249,141.843506 75.321579,139.790833 
	C49.618019,137.032486 27.245152,118.133942 21.868490,90.454933 
	C21.228758,87.161598 21.027374,83.968239 21.020594,80.709305 
	C20.979330,60.877651 21.101364,41.044872 20.906715,21.215042 
	C20.871613,17.638798 21.860765,16.904961 25.297995,16.916851 
	C63.461147,17.048866 101.625130,17.055052 139.788177,16.909658 
	C143.364273,16.896034 144.115326,17.865086 144.085632,21.301094 
	C143.911331,41.464638 144.537445,61.649456 143.825211,81.789322 
	C143.282684,97.130028 137.471207,110.744942 125.749458,121.749908 
z"/>
<path fill="#FFFFFF" opacity="1.000000" stroke="none" 
	d="
M50.261509,123.758209 
	C36.988529,115.486755 29.928535,103.371521 25.935822,89.028648 
	C25.077356,85.944824 25.005995,82.909920 25.004534,79.810608 
	C24.995512,60.651730 25.087860,41.492062 24.917603,22.334694 
	C24.887571,18.955885 25.550690,17.891993 29.175663,17.907648 
	C64.660583,18.060886 100.146584,18.046566 135.631744,17.923519 
	C138.953445,17.912001 140.138962,18.462523 140.097290,22.142332 
	C139.886032,40.799026 140.621658,59.485184 139.849136,78.112228 
	C138.784683,103.778374 120.918243,126.800003 94.357765,132.108948 
	C78.487633,135.281067 64.052864,132.595428 50.261509,123.758209 
z"/>
<path fill="#000000" opacity="1.000000" stroke="none" 
	d="
M88.696915,128.999969 
	C75.213799,129.956009 63.024063,127.739388 52.122650,120.031494 
	C37.377880,109.606117 29.243673,95.596443 29.041035,77.416306 
	C28.849854,60.264000 29.100096,43.106800 28.914072,25.954382 
	C28.877642,22.595133 29.891672,21.918797 33.053928,21.929729 
	C66.030022,22.043747 99.006844,22.047709 131.982880,21.924873 
	C135.215195,21.912834 136.115112,22.704014 136.081253,25.991125 
	C135.906281,42.977211 136.590591,59.992069 135.844208,76.947098 
	C134.992065,96.304443 126.196976,111.605949 109.424301,121.941406 
	C103.177483,125.790741 96.339188,127.856018 88.696915,128.999969 
z"/>
<path fill="#FFFFFF" opacity="1.000000" stroke="none" 
	d="
M131.773071,76.520233 
	C130.696213,86.252846 127.700356,94.770851 122.190598,102.391640 
	C114.204308,113.437836 103.544815,119.780228 90.048424,122.095551 
	C73.332672,124.963165 59.284821,119.579071 47.361572,108.591713 
	C40.312000,102.095482 35.488972,93.449852 34.143665,83.853363 
	C31.463871,64.737610 33.600906,45.436993 32.965698,26.227570 
	C32.888485,23.892534 34.175571,23.985968 35.780296,23.986898 
	C66.906647,24.004948 98.033195,24.049538 129.159073,23.926886 
	C132.403915,23.914099 132.015976,25.637104 132.012024,27.664097 
	C131.980667,43.809654 131.980499,59.955269 131.773071,76.520233 
z"/>
<path fill="#000000" opacity="1.000000" stroke="none" 
	d="
M107.182327,111.316132 
	C100.291443,115.340347 93.235016,118.442207 85.668488,118.830040 
	C74.423691,119.406403 63.884666,116.522316 54.842766,109.351433 
	C41.767429,98.981758 36.413898,85.321976 36.924767,68.827759 
	C37.306278,56.509995 37.092377,44.169731 36.932316,31.842232 
	C36.894314,28.915209 37.419601,27.896334 40.669456,27.913877 
	C68.493507,28.064087 96.319176,28.076376 124.142975,27.905144 
	C127.694176,27.883289 128.091751,29.166119 128.059738,32.154396 
	C127.920547,45.148949 128.285736,58.153709 127.928108,71.139900 
	C127.474976,87.593880 121.463821,101.438446 107.182327,111.316132 
z"/>
<path fill="#FFFFFF" opacity="1.000000" stroke="none" 
	d="
M120.802956,30.002102 
	C123.523575,29.912405 122.982666,31.586697 122.984566,32.796272 
	C123.007919,47.624916 123.937416,62.531670 122.711426,77.258286 
	C121.678329,89.667931 114.682823,99.404259 103.664825,106.087990 
	C86.782555,116.329086 66.956459,113.348358 53.125832,100.341377 
	C45.729061,93.385094 41.442142,84.012207 41.105312,73.651085 
	C40.672451,60.336010 41.125084,46.994194 40.910526,33.668499 
	C40.858051,30.409214 41.923779,29.921806 44.843513,29.934950 
	C70.001770,30.048214 95.160751,30.000187 120.802956,30.002102 
z"/>
<path fill="#000000" opacity="1.000000" stroke="none" 
	d="
M109.785736,95.711472 
	C96.865471,109.575600 78.037010,112.271095 61.887241,101.786522 
	C53.632225,96.427292 47.632145,88.419884 46.014576,78.092796 
	C43.845798,64.246613 45.535408,50.294991 44.969475,36.404316 
	C44.884262,34.312916 45.784931,33.966862 47.605919,33.970505 
	C70.587425,34.016418 93.569122,34.023327 116.550552,33.962124 
	C118.571213,33.956745 119.042068,34.680878 119.033218,36.559700 
	C118.969650,50.048603 119.572250,63.572624 118.759163,77.012642 
	C118.347176,83.822617 114.796677,90.171555 109.785736,95.711472 
z"/>
<path fill="#FFFFFF" opacity="1.000000" stroke="none" 
	d="
M115.000000,49.009003 
	C114.466461,58.559937 116.307121,67.733383 113.967422,76.676910 
	C110.366859,90.440140 98.763107,100.776245 83.485741,101.137039 
	C70.364159,101.446922 60.986057,95.788307 53.977379,85.375153 
	C50.577732,80.324127 49.313576,74.379417 49.095562,68.443123 
	C48.741245,58.795464 49.114220,49.123108 48.930367,39.465935 
	C48.875351,36.576393 49.782154,35.922626 52.544197,35.938782 
	C72.198006,36.053738 91.853165,36.058804 111.506859,35.934631 
	C114.346809,35.916691 115.280281,36.698280 115.053612,39.520023 
	C114.814323,42.498932 114.999977,45.511974 115.000000,49.009003 
z"/>
<path fill="#000000" opacity="1.000000" stroke="none" 
	d="
M60.067101,40.000000 
	C76.054756,40.000004 91.550430,40.109131 107.042274,39.913868 
	C110.399872,39.871548 111.157959,40.877876 111.074097,44.055031 
	C110.854385,52.379501 111.555977,60.759388 110.874809,69.033577 
	C109.741913,82.795059 104.602661,90.177490 91.791664,95.602936 
	C83.902817,98.943863 69.925499,97.050507 62.398037,89.193779 
	C55.930412,82.443245 53.569778,74.634941 53.072754,65.922722 
	C52.703278,59.446194 52.999939,52.931652 53.000019,46.434044 
	C53.000095,40.000652 53.000164,40.000652 60.067101,40.000000 
z"/>
<path fill="#FFFFFF" opacity="1.000000" stroke="none" 
	d="
M104.823090,76.494568 
	C100.560226,85.281822 93.444962,89.994530 84.518211,90.829323 
	C71.928375,92.006683 57.861946,82.037254 57.986874,68.226631 
	C58.059193,60.231464 58.112034,52.232658 57.936954,44.240673 
	C57.878860,41.588860 58.682156,40.919792 61.270550,40.942074 
	C75.428764,41.063950 89.589188,41.067284 103.747307,40.939713 
	C106.369759,40.916084 107.117348,41.641037 107.060722,44.258507 
	C106.891411,52.084087 106.891403,59.917934 107.054260,67.743790 
	C107.117920,70.802879 105.096527,73.199539 104.823090,76.494568 
z"/>
<path fill="#000000" opacity="1.000000" stroke="none" 
	d="
M63.958618,74.798340 
	C62.503784,72.694702 61.930664,70.783279 61.963734,68.531868 
	C62.064053,61.702312 62.094509,54.868324 61.948471,48.040421 
	C61.898094,45.684978 62.518589,44.917526 64.971901,44.943981 
	C76.633286,45.069729 88.296852,44.980171 99.959351,45.032143 
	C101.087700,45.037174 103.048920,44.277737 102.939163,46.468910 
	C102.527107,54.694931 104.045563,62.972717 102.045036,71.162788 
	C99.574249,81.278122 92.068733,85.220909 82.863441,86.929688 
	C76.662666,88.080734 68.203079,82.605286 63.958618,74.798340 
z"/>
<path fill="#FFFFFF" opacity="1.000000" stroke="none" 
	d="
M68.152100,72.464783 
	C64.355087,64.576035 66.613045,56.543636 66.009659,48.757080 
	C65.837639,46.537128 67.514214,47.014664 68.749138,47.011803 
	C77.902519,46.990570 87.056000,47.013985 96.209351,46.987282 
	C97.802155,46.982635 99.241905,46.870823 99.016724,49.217045 
	C98.452927,55.091457 99.393501,60.954430 98.217522,66.920128 
	C96.834930,73.933937 92.508095,77.963585 86.480637,79.618889 
	C80.689674,81.209236 74.748894,80.022751 70.413811,74.937309 
	C69.769783,74.181816 69.005379,73.528938 68.152100,72.464783 
z"/>
<path fill="#000000" opacity="1.000000" stroke="none" 
	d="
M95.000000,60.764557 
	C94.679733,67.532372 92.606430,72.299736 86.168678,75.172256 
	C79.150551,78.303749 70.259697,71.543709 69.984207,64.078659 
	C69.501503,50.998489 69.460625,50.999996 82.356789,51.000000 
	C83.519859,51.000000 84.682938,51.000000 85.846008,51.000000 
	C95.000000,51.000000 95.000000,51.000000 95.000000,60.764557 
z"/>
</svg>